<svg xmlns="http://www.w3.org/2000/svg" width="140" height="89.127" viewBox="0 0 140 89.127">
  <g id="Group_2386" data-name="Group 2386" transform="translate(-501.566 -172.201)">
    <path id="Path_1560" data-name="Path 1560" d="M556.416,172.2a31.694,31.694,0,1,1-31.992,31.693A31.908,31.908,0,0,1,556.416,172.2Zm.17,4.811a26.884,26.884,0,1,1-27.136,26.882,27.064,27.064,0,0,1,27.136-26.882Z" transform="translate(15.271)" fill="#fff" fill-rule="evenodd"/>
    <path id="Path_1561" data-name="Path 1561" d="M552.462,177.782l-5.224,15.351H530.562l12.856,9.618-4.247,16.1,13.291-9.67,13.73,9.681-4.265-16.107,12.585-9.453-16.712-.165s-5.281-15.528-5.338-15.351Z" transform="translate(19.371 3.727)" fill="#fff" fill-rule="evenodd"/>
    <path id="Path_1562" data-name="Path 1562" d="M513.908,215.57h-8.722s-3.616.3-3.616,3.78v9.278s-.247,2.9,3.373,3.728h8.966v-3.728h-8.327V219.35h8.327v-3.78Z" transform="translate(0 28.973)" fill="#fff" fill-rule="evenodd"/>
    <path id="Path_1563" data-name="Path 1563" d="M522.209,215.57h-6.682s-3.62.3-3.62,3.78v9.278s-.247,2.9,3.373,3.728h7.571c3.616-.832,3.368-3.728,3.368-3.728V219.35c0-3.485-3.62-3.78-3.62-3.78Zm0,13.058h-6.285V219.35h6.285v9.278Z" transform="translate(6.906 28.973)" fill="#fff" fill-rule="evenodd"/>
    <path id="Path_1564" data-name="Path 1564" d="M523.547,215.57h9.91s3.171.687,3.171,3.78v13.006h-4.015V219.35h-5.1v13.006h-3.965V215.57Z" transform="translate(14.685 28.973)" fill="#fff" fill-rule="evenodd"/>
    <path id="Path_1565" data-name="Path 1565" d="M533.527,215.57l5.3,16.785h5.6l5.451-16.785h-4.411l-3.815,13.056-3.714-13.056Z" transform="translate(21.352 28.973)" fill="#fff" fill-rule="evenodd"/>
    <path id="Path_1566" data-name="Path 1566" d="M557.825,215.57h-8.474s-3.716.1-3.863,3.78l-.053,9.278a3.757,3.757,0,0,0,3.917,3.728h8.474v-3.728h-8.474v-2.9h8.474v-3.485l-8.474-.1v-2.8h8.474v-3.78Z" transform="translate(29.307 28.973)" fill="#fff" fill-rule="evenodd"/>
    <path id="Path_1567" data-name="Path 1567" d="M556.277,215.57h9.266s3.917,0,3.917,3.68v2.9a3.891,3.891,0,0,1-2.976,3.731l3.468,6.477H565.84l-3.37-6.674h-2.277v6.674h-3.917V215.57Zm3.917,3.68h5.349v2.9h-5.349v-2.9Z" transform="translate(36.55 28.973)" fill="#fff" fill-rule="evenodd"/>
    <path id="Path_1568" data-name="Path 1568" d="M579.751,215.57h-9.308s-3.256.786-3.209,3.68v2.9s-.229,3.466,3.209,3.513h5.915v2.967h-9.171v3.728h9.9a3.837,3.837,0,0,0,3.209-3.728l-.043-3.423a3.68,3.68,0,0,0-3.074-3.058h-5.96v-2.9h8.527v-3.68Z" transform="translate(43.839 28.973)" fill="#fff" fill-rule="evenodd"/>
    <path id="Path_1569" data-name="Path 1569" d="M590.417,215.57h-8.392a3.849,3.849,0,0,0-3.9,3.68l.042,9.465a3.716,3.716,0,0,0,3.855,3.641h8.392v-3.641h-8.392V225.8h8.392v-3.648h-8.392v-2.9h8.392v-3.68Z" transform="translate(51.148 28.973)" fill="#fff" fill-rule="evenodd"/>
  </g>
</svg>
