<svg xmlns="http://www.w3.org/2000/svg" width="167" height="70.924" viewBox="0 0 167 70.924">
  <path id="Path_1559" data-name="Path 1559" d="M648.132,120.7c2.114,0,4.619-.588,5.893-2.26,1.723-2.165,4.531-5.159,2.806-8.551-3.1,1.721-6.682,5.652-8.65,10.811Zm-5.65-3.533c3.354-5.406,9.729-12.686,15.134-11.8,2.162.94,2.9,3.348,3.638,5.5.982,6.49-3.343,11.6-8.357,14.946-2.947,1.92-7.79,1.521-8.692,2.162-1.917,5.7-3.541,12.934-4.915,18.729.048,1.322-4.571-.292-4.92-4.029.788-6.536,1.625-13.073,4.374-18.776-3.4-8.308,1.72-15.78,7.227-21.036.532,0,1.072-.151,1.417.442v-.093c.155,5.353-5.55,8.891-4.908,13.957m-16.474-13.663c4.332-.442,7.277-.839,11.015.59,1.037.537,2.653,3.089,1.127,3.781-3.19,1.575-9.681-1.868-10.368,3.047,2.167,1.183,6.09-.833,7.373,1.723-.049.982.194,2.015-.836,2.554-4.816.542-9.732-1.084-9.289,5.411,3.339,1.13,10.125-4.429,10.765.146-.836,3.339-4.621,4.4-7.62,5.361-2.512.792-4.712,1.023-6.437,0a7.259,7.259,0,0,1-2.614-4.823c-.241-2.162.991-4.128,1.48-6.043,0-.447.246-.987.1-1.426-2.413-3.293-.845-3.541,1.861-3.343a2.2,2.2,0,0,0,1.232-2.162c-3.093-.347-4.621-2.36-4.179-3.835-.542-.833,3.885-.688,6.385-.936ZM597.5,119.773c.445-4.719.5-10.412,3.788-14.451l.146-.093c4.274-.345,7.766,8.894,10.913,12.438l.144-.155c1.382-5.156-3.14-11.5-2.846-17.1.78-2.16,5.5,3.934,6.189,6.194,2.751,4.52,2.665,12.239.054,16.808-.933,1.674-3.734,2.656-5.309,1.276-3.146-3.392-5.163-8.206-7.572-11.838-2.9,3.931,3.273,14.523-4.321,13.121-1.71-.319-1.186-6.2-1.186-6.2m-2.258-1.322c0,3.538-2.75,5.9-5.5,6.689-6.34,1.771-11.454.982-15.185-4.228a4.148,4.148,0,0,1,1.767-6.05,8.144,8.144,0,0,1,5.353-.591l.59.054,4.374,1.03c2.507.539,3.693,2.408,3.244,2.943-.343.153-.282.153-.737.35H589c-2.41.591-4.031.2-5.4-.982-4.767-2.8-8.7-1.227-7.618,1.769,1.427,3.932,14.548,1.674,15.382-1.23l.144-.442v-.688c-1.174-3.195-8.109-3.635-11.843-3.83,0,0-7.474.391-7.37-1.526-1.188-3.976,1.716-5.951,4.571-7.567,6.189-2.017,18.627-2.265,19.515.048.336,2.112-1.927,2.85-3.5,3.1-5.112.726-15.233.292-15.187,2.26,6.344,2.892,17.544-2.019,17.544,8.694ZM568.358,94.322c3.288.783,5.443.02,8.347-1.455,1.764-.936,3.157-2.775,2.612-4.838-1.721-3.3-7.914,3.586-10.862,6.342h-.048Zm-1.913,31.258c1.376.545,3.931,1.086,5.062-.393l-.938-20.443c-.586-1.132-2.114-3.293-3.681-1.769-2.162,6.733-1.422,22.8-.443,22.657Zm4.711-40.6c-7.494,1.781-6.192,8.206-6.192,8.206,2.758-5.407,9.144-7.566,9.144-7.566a3.936,3.936,0,0,0-2.952-.641m7.331-1.628a5.011,5.011,0,0,1,3.485.935c2.709,2.015,1.891,5.783,1.383,6.983-2.35,5.611-10.57,9.391-17.655,7.474-1.516.386-1.917,2.107-3.288,1.273-.984-.783.393-2.111.294-2.7-1.57-2.012-3.587-4.765-1.871-8.257,2.162-4.321,5.9-6.534,10.373-7.515a7.788,7.788,0,0,1,7.321,1.711v.051Zm-71.269,27.786c2.7,4.765,7.919,7.323,12.585,9.09l.444-12.47c-4.126.054-9.588.627-13.126,3.38h.1Zm54.8-6.349c1.523,3.29,1.67,10.762-1.426,14.349-7.956,9.149-21.476,11.207-33.667,8.655-.192.935-.62,4.082-2.977,3.739-4.9-.721-4.116-5.509-4.194-6.342-1.942-.054-12.538-7.324-15.338-13.707-.539-5.6,7.91-7.185,13.168-8.558l3.067-.736c.3-3.547.571-8.847,1.993-12.485,2.313-.343,2.952,1.818,3.492,3.733l.936,8.111c7.474,0,14.455,1.128,19.857,5.9,1.332,1.419.739,3.581.1,4.959-1.721,2.707-7.521,3.3-7.47,1.919,0,0,3.339-2.214,2.653-2.9l-.238-.4c-3.895-2.551-9.251-3.581-14.461-3.581l-.319.053a83.3,83.3,0,0,1-.121,14.886,30.915,30.915,0,0,0,17.549.046c4.23-1.167,8.551-3.39,10.959-7.713,3-5.411-.738-11.307-3.737-14.946C538.378,87.1,523.182,79.828,504.217,80.523c-.982.049-5.212.391-6.437,1.327-.935.736.393.3.393.343,1.324-.444,2.114,1.276,2.165,1.276-.153,1.421-3.89.982-5.46.489a2.8,2.8,0,0,1,0-3.142c1.964-4.277,6.738-4.471,10.468-4.571,23-.35,47.726,9.083,56.624,28.451l.1.1Z" transform="translate(-494.395 -76.236)" fill="#fff"/>
</svg>
