<?xml version="1.0" encoding="UTF-8"?>
<svg width="563px" height="513px" viewBox="0 0 563 513" version="1.1" xmlns="http://www.w3.org/2000/svg" xmlns:xlink="http://www.w3.org/1999/xlink">
    <!-- Generator: Sketch 64 (93537) - https://sketch.com -->
    <title>features-square</title>
    <desc>Created with Sketch.</desc>
    <g id="features-square" stroke="none" stroke-width="1" fill="none" fill-rule="evenodd">
        <g id="Group-13" transform="translate(238.781780, 273.460798) rotate(-30.000000) translate(-238.781780, -273.460798) translate(33.281780, 2.960798)">
            <polygon id="Fill-1" fill="#4D4D8C" points="238.023739 0.000312716763 124.73271 65.4144052 238.764877 131.231902 352.055906 65.8240642 351.339785 65.4206595"></polygon>
            <polygon id="Fill-2" fill="#30306D" points="238.763939 419.058287 124.756789 353.222027 124.756789 65.3912642 238.763939 131.233779"></polygon>
            <polygon id="Fill-3" fill="#12123F" points="352.001806 65.8074902 238.704523 131.22471 238.704523 419.0586 352.001806 353.638253"></polygon>
            <polygon id="Fill-4" fill="#F90D6D" points="0 180.22086 90.0030116 232.181877 179.433751 180.552339 178.873988 180.227114 89.4244855 128.591322"></polygon>
            <polygon id="Fill-5" fill="#D31172" points="0 407.42022 90.0030116 459.390619 90.0030116 232.180001 0 180.22211"></polygon>
            <polygon id="Fill-6" fill="#7C0E5A" points="179.390597 180.541394 89.9536023 232.174059 89.9536023 459.390932 179.390597 407.758267"></polygon>
            <polygon id="Fill-7" fill="#F15A22" points="301.173136 311.931531 228.075593 269.736658 154.996813 311.92215 228.544668 354.389086 301.629703 312.200468"></polygon>
            <polygon id="Fill-8" fill="#D83705" points="154.997438 497.600855 228.545294 540.067791 228.545294 354.389086 154.997438 311.92215"></polygon>
            <polygon id="Fill-9" fill="#BC2B04" points="228.50808 354.384708 228.50808 540.069668 301.596242 497.874795 301.596242 312.186708"></polygon>
            <polygon id="Fill-10" fill="#D1C237" points="304.529213 300.381025 357.841166 331.161736 410.815386 300.574909 410.502669 300.387279 357.50656 269.791071"></polygon>
            <polygon id="Fill-11" fill="#C1B336" points="357.840854 465.770354 304.5289 434.977134 304.5289 300.380712 357.840854 331.161423"></polygon>
            <polygon id="Fill-12" fill="#77601E" points="357.840541 331.162674 357.840541 465.768477 410.814761 435.178524 410.814761 300.575847"></polygon>
        </g>
    </g>
</svg>