<svg xmlns="http://www.w3.org/2000/svg" width="158.502" height="55.331" viewBox="0 0 158.502 55.331">
  <g id="apple-itunes-seeklogo.com" transform="translate(-7114.333 -7180.338)">
    <g id="Group_2389" data-name="Group 2389" transform="translate(10 8)">
      <path id="Path_1575" data-name="Path 1575" d="M7151.89,7212.93a39.616,39.616,0,0,1-3.6,6.711c-2.334,3.556-5.625,7.979-9.7,8.019-3.625.033-4.557-2.357-9.475-2.332s-5.943,2.373-9.566,2.34c-4.078-.037-7.2-4.033-9.533-7.586-6.528-9.938-7.211-21.6-3.186-27.8,2.861-4.4,7.376-6.982,11.622-6.982,4.323,0,7.04,2.369,10.612,2.369,3.467,0,5.578-2.373,10.576-2.373a14.125,14.125,0,0,1,10.631,5.609c-9.342,5.119-7.823,18.456,1.617,22.024Z" fill="#fff"/>
      <path id="Path_1576" data-name="Path 1576" d="M7135.85,7181.32a12.123,12.123,0,0,0,2.694-8.982,13.1,13.1,0,0,0-8.461,4.551c-1.838,2.232-3.355,5.543-2.766,8.762A11.069,11.069,0,0,0,7135.85,7181.32Z" fill="#fff"/>
      <g id="Group_2388" data-name="Group 2388">
        <path id="Path_1577" data-name="Path 1577" d="M7166.579,7196.231a2.77,2.77,0,0,1-2.979,2.76,2.78,2.78,0,1,1,.036-5.555A2.769,2.769,0,0,1,7166.579,7196.231Zm-5.7,22.7v-17.764h5.521v17.764Zm14.858-19.835h-6.574v-4.649h18.815v4.649h-6.683v19.833h-5.559Zm29.783,14.135c0,2.324.073,4.212.144,5.7h-4.794l-.254-2.506h-.11a6.34,6.34,0,0,1-5.559,2.907c-3.6,0-6.248-2.254-6.248-7.738v-10.423h5.558v9.553c0,2.579.835,4.14,2.76,4.14a2.968,2.968,0,0,0,2.76-1.924,3.115,3.115,0,0,0,.179-1.2v-10.57h5.56v12.059h0Zm4.426-6.394c0-2.217-.073-4.105-.144-5.665h4.794l.254,2.434h.11a6.5,6.5,0,0,1,5.484-2.833c3.633,0,6.354,2.4,6.354,7.627v10.534h-5.52v-9.844c0-2.287-.8-3.85-2.8-3.85a2.946,2.946,0,0,0-2.8,2.068,3.947,3.947,0,0,0-.217,1.38v10.244h-5.521v-12.094h0Zm25.538,4.979c.182,2.288,2.434,3.378,5.013,3.378a15.657,15.657,0,0,0,4.9-.726l.727,3.739a17.5,17.5,0,0,1-6.43,1.125c-6.031,0-9.479-3.522-9.479-9.082,0-4.5,2.8-9.478,8.971-9.478,5.74,0,7.918,4.465,7.918,8.863a13.461,13.461,0,0,1-.18,2.179h-11.443Zm6.5-3.78c0-1.342-.583-3.6-3.124-3.6-2.325,0-3.269,2.106-3.416,3.6Zm8.39,6.065a10.836,10.836,0,0,0,4.759,1.342c1.671,0,2.362-.583,2.362-1.49s-.546-1.343-2.616-2.034c-3.669-1.234-5.086-3.232-5.049-5.3,0-3.341,2.833-5.849,7.229-5.849a11.907,11.907,0,0,1,5.013,1.019l-.981,3.814a8.717,8.717,0,0,0-3.85-1.019c-1.342,0-2.107.546-2.107,1.453,0,.836.69,1.273,2.869,2.035,3.378,1.162,4.795,2.87,4.832,5.484,0,3.306-2.615,5.776-7.7,5.776a12.539,12.539,0,0,1-5.739-1.273l.979-3.956Z" fill="#fff"/>
      </g>
    </g>
  </g>
</svg>
