<svg xmlns="http://www.w3.org/2000/svg" width="191.68" height="30.895" viewBox="0 0 191.68 30.895">
  <g id="Group_2391" data-name="Group 2391" transform="translate(-560 -1627)">
    <g id="Group_2390" data-name="Group 2390" transform="translate(560 1627)">
      <path id="Path_1578" data-name="Path 1578" d="M-16.905,419.172l6.677-30.059H1.692L2.236,405.9l8.023-16.792H22.209L15.5,419.172H6.85l3.582-16.161L2.38,419.172H-3.838l-.315-16.161-4.012,16.161Z" transform="translate(16.905 -389.112)" fill="#fff" fill-rule="evenodd"/>
      <path id="Path_1579" data-name="Path 1579" d="M19.9,394.012h8.052l1.089-4.9H20.964l-1.06,4.9Z" transform="translate(20.242 -389.112)" fill="#fff" fill-rule="evenodd"/>
      <path id="Path_1580" data-name="Path 1580" d="M22.837,418.552l-8.109-.029,4.957-22.265h8.109l-4.957,22.294Z" transform="translate(19.773 -388.464)" fill="#fff" fill-rule="evenodd"/>
      <path id="Path_1581" data-name="Path 1581" d="M50.745,396.29h7.25l-.63,2.751a7.811,7.811,0,0,1,3.725-2.522,11.757,11.757,0,0,1,3.783-.6l-1.863,7.25c-.459,0-6.075-1.088-7.823,7.48l-1.805,7.937H45.73l5.015-22.293Z" transform="translate(22.583 -388.495)" fill="#fff" fill-rule="evenodd"/>
      <path id="Path_1582" data-name="Path 1582" d="M48.358,410.352c0,.171-2.55,9.111-13.754,8.882-15.015-.315-11.118-24.385,5.932-23.525,9.685.487,9.2,8.539,9.112,8.883H41.281c.115-.315.4-3.639-2.264-3.583-4.957.144-8.482,12.437-3.008,12.551,2.522.086,3.7-2.837,3.925-3.209Z" transform="translate(20.728 -388.516)" fill="#fff" fill-rule="evenodd"/>
      <path id="Path_1583" data-name="Path 1583" d="M113.192,419.344c-16.3-.688-11.4-24.7,5.33-23.9,15.732.774,11.261,24.558-5.33,23.9Zm4.786-18.655c-5.416-1.089-9.457,11.921-4.3,12.981,5.73,1.2,9.57-11.921,4.3-12.981Z" transform="translate(27.791 -388.54)" fill="#fff" fill-rule="evenodd"/>
      <path id="Path_1584" data-name="Path 1584" d="M141.707,393.6c-2.235,0-2.664.859-3.037,2.551l-.143.745h4.728l1.175-5.388h7.394l-1.146,5.388h3.811l-1.118,5.129h-3.811l-2.092,9.771a3.132,3.132,0,0,0-.086,1.633c.315.889,3.5.516,3.5.516l-1.232,5.1s-6.476.745-8.654-.773c-.974-.66-2.034-2.035-1.375-4.986l2.493-11.233-4.441-.028-3.754,17.135h-7.966l3.725-17.135h-4.1l1.146-5.129H130.7c.717-2.866,1.347-4.814,3.124-6.3,2.435-1.977,8.769-1.2,8.769-1.2l-.889,4.212Z" transform="translate(29.822 -389.101)" fill="#fff" fill-rule="evenodd"/>
      <path id="Path_1585" data-name="Path 1585" d="M76.2,410.98l15.13-.028s-1.289,3.353,3.467,3.381c3.3,0,4.585-3.753.144-4.527-2.034-.373-9.915-1.69-9.026-7.765.745-4.985,5.931-6.734,11.606-6.648,11.6.143,9.427,6.963,9.57,7.421H99.351s.831-2.865-2.664-2.865c-3.181,0-3.955,2.865-.287,3.64,4.471.974,9.6,1.2,9.886,6.963.086,1.605-.859,9.112-12.551,8.883-10.717-.229-11.462-5.272-11.175-7.623a14.019,14.019,0,0,1-13.325,7.508c-16.305-.516-11.347-24.672,5.358-23.842,7.593.373,10.488,6.133,9.571,11.806-.143,1-.229,1.146-.516,1.232L76.2,410.98Zm-2.206-10.315c-5.358-1.06-9.37,11.891-4.24,12.981,5.674,1.175,9.484-11.921,4.24-12.981Z" transform="translate(23.808 -388.543)" fill="#fff" fill-rule="evenodd"/>
      <path id="Path_1586" data-name="Path 1586" d="M156.423,396.232a2.88,2.88,0,1,1,0,5.76,2.88,2.88,0,1,1,0-5.76Zm0,.516a2.351,2.351,0,1,0,0,4.7,2.351,2.351,0,1,0,0-4.7Zm.517,2.694.573,1.146h-.688l-.458-1.146h-.4l-.171,1.232h-.6l.488-3.066h1.4a.944.944,0,0,1,.717.946.865.865,0,0,1-.859.888Zm-.144-1.433h-.573l-.144,1h.574a.535.535,0,0,0,.63-.488.487.487,0,0,0-.488-.516Z" transform="translate(32.355 -388.467)" fill="#fff" fill-rule="evenodd"/>
    </g>
  </g>
</svg>
