<?xml version="1.0" encoding="UTF-8"?>
<svg width="249px" height="249px" viewBox="0 0 249 249" version="1.1" xmlns="http://www.w3.org/2000/svg" xmlns:xlink="http://www.w3.org/1999/xlink">
    <!-- Generator: Sketch 64 (93537) - https://sketch.com -->
    <title>partners-triangle</title>
    <desc>Created with Sketch.</desc>
    <defs>
        <linearGradient x1="0%" y1="50%" x2="100%" y2="50%" id="linearGradient-1">
            <stop stop-color="#4D4D8C" offset="0%"></stop>
            <stop stop-color="#425597" offset="50%"></stop>
            <stop stop-color="#4D4D8C" offset="100%"></stop>
        </linearGradient>
        <linearGradient x1="2.98071405e-14%" y1="50%" x2="100.008373%" y2="50%" id="linearGradient-2">
            <stop stop-color="#FEEC19" offset="0%"></stop>
            <stop stop-color="#FECB01" offset="50%"></stop>
            <stop stop-color="#FEA300" offset="100%"></stop>
        </linearGradient>
        <linearGradient x1="-0.030183409%" y1="49.9824217%" x2="100%" y2="49.9824217%" id="linearGradient-3">
            <stop stop-color="#D654DD" offset="0%"></stop>
            <stop stop-color="#A324A3" offset="50%"></stop>
            <stop stop-color="#BF4CB2" offset="100%"></stop>
        </linearGradient>
        <linearGradient x1="5.47076329e-15%" y1="50.0005229%" x2="100%" y2="50.0005229%" id="linearGradient-4">
            <stop stop-color="#FB6040" offset="0%"></stop>
            <stop stop-color="#FE0001" offset="50%"></stop>
            <stop stop-color="#D50001" offset="100%"></stop>
        </linearGradient>
        <linearGradient x1="0%" y1="50.0295935%" x2="100%" y2="50.0295935%" id="linearGradient-5">
            <stop stop-color="#783215" offset="0%"></stop>
            <stop stop-color="#C20001" offset="50%"></stop>
            <stop stop-color="#D50001" offset="100%"></stop>
        </linearGradient>
    </defs>
    <g id="partners-triangle" stroke="none" stroke-width="1" fill="none" fill-rule="evenodd">
        <polygon id="Path" fill="#C6E541" fill-rule="nonzero" transform="translate(37.335274, 97.583830) rotate(11.000000) translate(-37.335274, -97.583830) " points="37.4124563 78.3036855 37.2272187 78.1801938 3.73008976 97.5066479 37.4124563 116.987467 70.9404581 97.6301396"></polygon>
        <polygon id="Path" fill="#4F0B0B" fill-rule="nonzero" transform="translate(133.015199, 57.746595) rotate(11.000000) translate(-133.015199, -57.746595) " points="125.219784 49.2719753 138.093795 20.8997528 140.810613 66.2212138 127.967474 94.5934364"></polygon>
        <path d="M188.251724,102.077775 C175.351564,88.5709902 158.480392,79.5297722 140.089953,76.2680055 L137.342263,30.9465444 C173.607212,37.3813714 206.874444,55.2154628 232.307395,81.8560058 L188.251724,102.077775 Z" id="Path" fill="url(#linearGradient-1)" fill-rule="nonzero" transform="translate(184.824829, 66.512160) rotate(11.000000) translate(-184.824829, -66.512160) "></path>
        <path d="M127.40086,100.219579 C143.242431,104.283248 157.614608,112.73747 168.863205,124.609193 C171.086056,119.669525 173.33978,114.729856 175.562631,109.759314 L180.008333,99.9108494 L181.304996,97.0396669 C181.922455,95.7430039 181.304996,95.5886392 180.039206,94.4463408 C171.54132,86.004356 161.357868,79.4503369 150.15421,75.2125055 C147.622629,74.2554447 145.091049,73.3601297 142.497723,72.5883065 C139.584093,71.6221217 136.586745,70.9296308 133.544573,70.5198202 L131.136485,75.3977431 L120.577943,98.768551 C122.831667,99.1698991 125.085391,99.663866 127.277369,100.219579 L127.40086,100.219579 Z" id="Path" fill="#12123F" fill-rule="nonzero" transform="translate(151.062290, 97.564507) rotate(11.000000) translate(-151.062290, -97.564507) "></path>
        <polygon id="Path" fill="#5F0D0E" fill-rule="nonzero" transform="translate(195.944468, 109.056386) rotate(11.000000) translate(-195.944468, -109.056386) " points="167.495063 133.353382 180.338202 104.981159 224.393873 84.7593902 211.550734 113.131613"></polygon>
        <path d="M161.358888,129.993123 L174.202027,101.6209 C177.891541,105.578875 181.065758,109.987508 183.649143,114.741895 C190.163332,126.936703 190.719044,138.822781 186.365961,148.424262 L173.522822,176.827357 C177.875905,167.195003 177.320193,155.216307 170.806004,143.114118 C168.215149,138.364427 165.041579,133.956692 161.358888,129.993123 L161.358888,129.993123 Z" id="Path" fill="#847413" fill-rule="nonzero" transform="translate(175.267254, 139.224129) rotate(11.000000) translate(-175.267254, -139.224129) "></path>
        <path d="M112.699962,60.0829824 L109.612669,60.6078222 L108.593862,60.8239327 L106.648868,61.2561538 L105.506569,61.5648831 L103.808558,62.0588499 L102.66626,62.4293251 L101.09174,62.9850378 L100.721265,62.9850378 L99.7024584,63.4172589 L98.8071434,63.787734 L97.201751,64.5286843 L96.6151654,64.8065407 L94.4849332,65.9488391 L94.0527122,66.2266955 L92.5090657,67.2146292 L91.8298612,67.6777232 C91.4285131,67.9555795 90.9962921,68.2334359 90.625817,68.5421652 L89.9157396,69.097878 L88.835187,69.96232 L88.1559826,70.5489057 L87.1989218,71.4750936 C86.9828112,71.6912041 86.7667007,71.8764416 86.5814632,72.0925522 L86.2418609,72.4012815 L85.2539272,73.5127069 L85.2539272,73.5127069 C84.8059882,74.0160963 84.3835295,74.5415937 83.988137,75.0872264 L83.988137,75.0872264 C83.586789,75.6429391 83.1854409,76.1986518 82.8458386,76.7543646 C82.7665802,76.8520256 82.6943615,76.9551952 82.6297281,77.0630939 C82.2901259,77.6188066 81.9505237,78.1745193 81.6417944,78.7302321 L81.6417944,79.0389614 L80.7156065,80.8604642 L67.5328654,109.634035 L68.4590533,107.812532 L68.4590533,107.534676 C68.7677826,106.94809 69.1073848,106.392377 69.4469871,105.836665 L69.6630976,105.527935 C70.0156145,104.963327 70.3968824,104.417186 70.805396,103.89167 L70.805396,103.706432 C71.2067441,103.181593 71.6080922,102.656753 72.0403132,102.162786 L72.0403132,102.008421 C72.4416613,101.514454 72.8738823,101.082233 73.3061033,100.619139 L73.9544348,99.9708078 C74.2631641,99.6620785 74.5718934,99.3533492 74.9114957,99.0754929 L75.5907001,98.4580343 L77.1343466,97.5935922 L77.844424,97.0378795 C78.2275907,96.7252162 78.6297045,96.4365191 79.0484683,96.1734375 L79.7276727,95.7103435 C80.2216396,95.3707413 80.7464794,95.0311391 81.3021921,94.7224098 C81.4242964,94.6224601 81.5592892,94.5393876 81.7035402,94.4754263 C82.3827447,94.0740782 83.0928221,93.7036031 83.8028995,93.3331279 L84.4203581,93.0243986 L86.0566233,92.2834483 L86.9210654,91.9129731 L88.3103472,91.3572604 L89.8848667,90.8015477 L91.0271651,90.4310725 L92.7251762,89.9371056 L93.8674746,89.6283763 L95.8124692,89.1961553 L96.8004029,88.9800448 L99.8876959,88.455205 C107.343785,87.4800367 114.906567,87.6779608 122.301443,89.0417907 L135.144582,60.6695681 C127.739648,59.3024987 120.166194,59.104568 112.699962,60.0829824 L112.699962,60.0829824 Z" id="Path" fill="#7A118C" fill-rule="nonzero" transform="translate(101.338724, 84.553079) rotate(11.000000) translate(-101.338724, -84.553079) "></path>
        <path d="M241.064806,185.299724 L186.327101,157.730197 C191.915102,147.758241 191.853356,134.915102 184.783455,121.701488 C182.200069,116.947101 179.025853,112.538467 175.336338,108.580493 L219.392009,88.3587237 C226.646385,96.1672125 232.871545,104.872061 237.915767,114.261112 C251.96295,140.317865 252.086442,165.602794 241.064806,185.299724 Z" id="Path" fill="url(#linearGradient-2)" fill-rule="nonzero" transform="translate(212.133790, 136.829224) rotate(11.000000) translate(-212.133790, -136.829224) "></path>
        <polygon id="Path" fill="#998716" fill-rule="nonzero" transform="translate(198.038477, 183.875940) rotate(11.000000) translate(-198.038477, -183.875940) " points="164.248055 184.308161 177.091194 155.905065 231.828899 183.474592 219.016633 211.846814"></polygon>
        <path d="M6.95563844,69.6326226 L19.9531419,41.2604 C11.2161028,60.2163789 12.3275282,83.6489327 25.20154,107.698945 C30.2532006,117.083363 36.4777114,125.787304 43.7252979,133.601333 L30.9747779,161.91181 C23.7277761,154.108621 17.5031962,145.414958 12.45102,136.040295 C-0.515610597,112.021155 -1.657909,88.5886015 6.95563844,69.6326226 Z" id="Path" fill="#312E91" fill-rule="nonzero" transform="translate(22.571853, 101.586105) rotate(11.000000) translate(-22.571853, -101.586105) "></path>
        <path d="M6.95563844,69.6326226 L19.9531419,41.2604 C11.2161028,60.2163789 12.3275282,83.6489327 25.20154,107.698945 C30.2532006,117.083363 36.4777114,125.787304 43.7252979,133.601333 L30.9747779,161.91181 C23.7277761,154.108621 17.5031962,145.414958 12.45102,136.040295 C-0.515610597,112.021155 -1.657909,88.5886015 6.95563844,69.6326226 Z" id="Path" fill="#A324A3" fill-rule="nonzero" transform="translate(22.571853, 101.586105) rotate(11.000000) translate(-22.571853, -101.586105) "></path>
        <polygon id="Path" fill="#3F7018" fill-rule="nonzero" transform="translate(51.860718, 144.045233) rotate(11.000000) translate(-51.860718, -144.045233) " points="23.4113133 168.342229 36.2544522 139.970006 80.3101231 119.748237 67.4669843 148.120459"></polygon>
        <path d="M49.7025047,143.756452 C42.4549182,135.942422 36.2304074,127.238481 31.1787468,117.854063 C3.60922041,66.481508 29.7277191,18.041881 89.3742196,9.67531701 C104.06838,7.738166 118.975215,8.11318071 133.553382,10.7867425 L136.301073,56.1082036 C128.906197,54.7443737 121.343415,54.5464496 113.887326,55.5216179 C83.6318547,59.7820822 70.3873678,84.3260615 84.3110591,110.413687 C86.9019145,115.163378 90.0754842,119.571114 93.7581757,123.534682 L49.7025047,143.756452 Z" id="Path" fill="url(#linearGradient-3)" fill-rule="nonzero" transform="translate(78.246615, 76.106773) rotate(11.000000) translate(-78.246615, -76.106773) "></path>
        <path d="M171.469774,207.912027 C122.505307,214.765818 66.1313371,192.475562 32.3254789,155.89114 L76.3811499,135.669371 C93.5464989,154.193129 122.134832,165.523494 146.956668,162.065726 C161.868293,159.966367 172.642945,152.803847 178.076581,143.202366 L232.814286,170.771892 C222.132252,189.913109 200.891676,203.775054 171.469774,207.912027 Z" id="Path" fill="url(#linearGradient-4)" fill-rule="nonzero" transform="translate(132.569882, 172.407773) rotate(11.000000) translate(-132.569882, -172.407773) "></path>
        <path d="M207.986335,208.093143 C210.834008,204.811347 213.347161,201.253633 215.488457,197.472855 L228.300723,169.100632 C218.297893,187.037804 200.021119,198.213805 180.602046,203.462203 C160.0615,208.579606 138.607549,208.812226 117.960871,204.141408 C96.9002264,199.66195 76.8201427,191.420749 58.684846,179.813539 C47.3362176,172.621116 36.9600716,163.998539 27.8119161,154.158134 L14.9687773,182.530357 C29.6448656,198.111245 47.2074291,210.69338 66.6809348,219.577873 C85.9379093,228.768269 106.7657,234.216182 128.056319,235.631796 C148.525072,236.774094 170.074377,233.77942 188.196787,223.776591 C195.662864,219.751079 202.361684,214.442186 207.986335,208.093143 C208.171572,207.846159 207.708479,208.370999 207.986335,208.093143 Z" id="Path" fill="url(#linearGradient-5)" fill-rule="nonzero" transform="translate(121.634750, 195.009714) rotate(11.000000) translate(-121.634750, -195.009714) "></path>
    </g>
</svg>