<?xml version="1.0" encoding="UTF-8"?>
<svg width="518px" height="466px" viewBox="0 0 518 466" version="1.1" xmlns="http://www.w3.org/2000/svg" xmlns:xlink="http://www.w3.org/1999/xlink">
    <!-- Generator: Sketch 64 (93537) - https://sketch.com -->
    <title>partners-circle</title>
    <desc>Created with Sketch.</desc>
    <defs>
        <polygon id="path-1" points="0.238818627 0.335529412 370.634917 0.335529412 370.634917 189.127451 0.238818627 189.127451"></polygon>
        <polygon id="path-3" points="0 0.586245098 324.534111 0.586245098 324.534111 329.372255 0 329.372255"></polygon>
    </defs>
    <g id="Page-1" stroke="none" stroke-width="1" fill="none" fill-rule="evenodd">
        <g id="Artboard" transform="translate(-526.000000, -836.000000)">
            <g id="partners-circle" transform="translate(526.000000, 836.000000)">
                <path d="M64.0219412,288.101614 C45.7279706,329.104222 42.296402,365.729261 51.3761471,394.906869 L192.367245,317.205025 C188.365294,305.565516 189.524608,290.837594 196.925667,274.254771 C216.063618,231.3648 269.586814,192.583437 316.654951,187.468545 L254.631667,101.94829 C172.236922,142.904525 97.5261078,213.01982 64.0219412,288.101614" id="Fill-1" fill="#12123F"></path>
                <path d="M320.565548,122.609579 C316.531136,121.264775 312.779597,119.219746 309.31093,116.72954 C302.999626,115.445021 297.133499,112.630207 292.000058,108.716364 C287.775519,110.362589 283.843126,112.036638 280.499666,113.455638 C275.292028,115.672246 270.311617,116.789825 265.595528,117.072697 L316.651705,187.466226 C316.753725,187.456952 316.855744,187.433766 316.957764,187.424491 C317.022685,187.419854 317.092244,187.382756 317.161803,187.368844 C321.381705,186.923668 325.318734,186.88657 329.125921,187.025687 C329.840058,184.224785 330.888077,181.465619 332.297803,178.785285 C331.820166,169.645256 332.399823,160.505226 333.058313,151.328099 L333.035126,151.388383 L333.058313,151.328099 C333.24844,148.670952 333.392195,145.981344 333.559136,143.314923 C331.810891,140.203325 330.428989,136.906236 329.41343,133.516403 C325.963313,130.339883 323.004744,126.625442 320.565548,122.609579" id="Fill-3" fill="#A324A3"></path>
                <path d="M443.246909,71.0878225 L346.059321,189.616058 C363.129056,194.846881 373.242909,207.404568 374.467144,224.446479 L517.827879,162.469568 C517.813968,162.154234 517.762958,161.843538 517.739772,161.51893 L455.160017,75.2381657 C451.329644,73.7078716 447.387977,72.2888716 443.246909,71.0878225" id="Fill-5" fill="#9AB52A"></path>
                <g id="Group-9" transform="translate(51.009804, 276.612559)">
                    <mask id="mask-2" fill="white">
                        <use xlink:href="#path-1"></use>
                    </mask>
                    <g id="Clip-8"></g>
                    <path d="M306.028681,10.1757843 C289.979142,24.1617451 278.093858,41.8389608 259.656132,53.1909608 C242.173681,63.9586667 221.635279,65.8367549 203.670554,75.7187451 C186.772397,85.0071667 169.79077,93.145549 151.742574,99.9159412 C105.161348,117.393755 57.7268676,125.47649 16.1863382,109.329569 L0.238818627,118.117167 C15.5742206,167.476108 66.57475,195.71699 142.315034,187.810471 C206.234956,181.151373 274.977623,150.086402 332.767093,105.916549 C346.043554,95.7702353 358.698623,84.9144216 370.634917,73.5392353 L317.538348,0.335529412 C313.694064,3.59551961 309.840505,6.8555098 306.028681,10.1757843" id="Fill-7" fill="#BC2B04" mask="url(#mask-2)"></path>
                </g>
                <polygon id="Fill-10" fill="#BC2B04" points="83.8095716 409.824918 65.5990716 423.036457 15.2848559 353.663124 33.4953559 340.451584"></polygon>
                <path d="M517.644244,162.320712 L471.030558,98.0529961 L465.809009,101.836996 C472.992117,133.885065 456.747813,160.419437 436.112028,184.621271 L443.258038,194.480075 L418.935636,204.992731 C418.165852,206.040751 417.35897,207.060947 416.607734,208.122878 C416.663381,214.23478 415.555077,220.476525 413.315283,226.514231 C407.50944,242.151055 397.010695,253.405673 384.661685,262.76829 C379.458685,267.642045 374.019185,272.302486 368.551862,276.949016 L421.643793,350.152722 C455.681244,317.664114 483.500136,280.700555 500.588421,242.406104 C513.549548,213.376888 518.863842,186.545731 517.71844,162.937467 L517.959577,162.761251 L517.709166,162.418094 L517.704528,162.297525 L517.644244,162.320712 Z" id="Fill-12" fill="#A8902D"></path>
                <path d="M496.67736,104.970853 L449.14086,39.4278922 L436.128723,48.8647059 L455.299134,75.3016961 C455.252762,75.2785098 455.211026,75.2599608 455.160017,75.2367745 L517.739772,161.517539 C516.362507,139.416382 509.095928,120.278431 496.67736,104.970853" id="Fill-14" fill="#7A118C"></path>
                <g id="Group-18" transform="translate(0.000000, 1.377265)">
                    <mask id="mask-4" fill="white">
                        <use xlink:href="#path-3"></use>
                    </mask>
                    <g id="Clip-17"></g>
                    <path d="M150.382003,208.706245 C169.561689,165.723529 223.265738,126.877245 270.417346,121.873647 L324.534111,0.586245098 C203.979395,13.2645 66.5543461,112.589863 17.487552,222.557725 C-0.815693137,263.555696 -4.24726176,300.180735 4.83712059,329.372255 L145.828219,251.6565 C141.826268,240.01699 142.985581,225.289069 150.382003,208.706245" id="Fill-16" fill="#4D4D8C" mask="url(#mask-4)"></path>
                </g>
                <path d="M396.704636,6.91795294 C376.277528,1.01936471 352.159166,-0.923645098 324.73444,1.94681569 C324.669519,1.95145294 324.59996,1.9560902 324.535038,1.96536471 L270.418274,123.252767 C270.478558,123.248129 270.557391,123.215669 270.622313,123.201757 C281.686803,122.04708 291.346205,122.951345 299.521685,125.450825 C316.586783,130.677012 326.705274,143.234698 327.929509,160.281247 L471.285607,98.2950608 C468.832499,53.1560216 442.154372,20.0599333 396.704636,6.91795294" id="Fill-19" fill="#D654DD"></path>
                <path d="M283.268107,240.492773 C281.088597,242.361586 278.862715,244.197939 276.576548,245.964733 C253.73343,263.734694 226.382901,276.334116 200.896548,278.991263 C171.876607,282.014753 152.131175,271.460361 145.699303,252.860331 L4.71284216,330.571449 C20.0389696,379.911841 71.0441363,408.161998 146.784421,400.255478 C210.704342,393.59638 279.451646,362.53141 337.236479,318.352282 C350.51294,308.215243 363.181921,297.345518 375.118215,285.965694 L375.053293,285.914684 L283.268107,240.492773 Z" id="Fill-21" fill="#F15A22"></path>
                <path d="M375.053293,285.914221 L375.118215,285.96523 L375.053293,285.914221 Z" id="Fill-23" fill="#F15A22"></path>
                <path d="M327.800129,160.105959 C328.440071,169.552047 326.376492,180.361488 321.141031,192.084469 C313.327257,209.622567 299.772561,226.372331 283.268571,240.492773 L375.053757,285.914684 L358.317904,262.839704 L375.053757,285.914684 L375.118678,285.965694 C409.142218,253.495635 436.96111,216.518165 454.049394,178.237625 C467.117178,148.944086 472.440747,121.890341 471.160865,98.1244098 L327.800129,160.105959 Z" id="Fill-25" fill="#E8C82A"></path>
            </g>
        </g>
    </g>
</svg>