<svg xmlns="http://www.w3.org/2000/svg" width="128.553" height="54.393" viewBox="0 0 128.553 54.393">
  <g id="Group_2387" data-name="Group 2387" transform="translate(-495.798 -282.184)">
    <path id="Path_1570" data-name="Path 1570" d="M585.516,300.193c-.038-.007,6.392,1.111,10.674-7.728,0,0,2.369-7.915,9.469-9.359,0,0,4.624-.3,1.355,3.911,0,0-5.415,1.644-7.441,4.209,0,0-1.577.722-3.043,4.321a13.026,13.026,0,0,1-6.087,7.09,17.326,17.326,0,0,1,2.816,10.18s-1.126,2.262,3.271,5.341a5.284,5.284,0,0,0,.9,2.879,1.926,1.926,0,0,1,.451,2.67,2.176,2.176,0,0,0-.11,1.853s.45,2.054-1.58,1.128a5.509,5.509,0,0,1-2.817-2.775v-3.905s-6.089-3.082-9.926-11.612c0,0-.333-4.215-6.983-4.834,0,0-10.483.724-17.36-7.191a4.927,4.927,0,0,1-4.512,1.536s-4.733-.1-6.087-1.333l-1.694-.718s-1.351,0-1.127.924a1.689,1.689,0,0,1-2.365.308c-1.239-1.029-1.807-3.8,2.816-4.214a18.75,18.75,0,0,1,4.061.1s2.138-.718-.339-2.362c0,0-1.353.1-2.479.308,0,0-1.917-.716-2.142-1.336a1.13,1.13,0,0,1-1.58-1.03s-.675-1.127.226-1.333l.9-.924v-.724s2.705-1.643,3.379-3.186l1.576.621,1.807-.825,1.013,1.748a20.98,20.98,0,0,1,9.7,3.291s13.751,9.149,14.656,9.764a36.268,36.268,0,0,0,8.6,3.206Z" transform="translate(16.167)" fill="#fff" fill-rule="evenodd"/>
    <path id="Path_1571" data-name="Path 1571" d="M512.5,303.028h8.667V324.5a1.71,1.71,0,0,0,1.528,1.441,1.353,1.353,0,0,0,1.418-1.493l-.109-21.42h8.338l-.162,24.451s-.543,1.791-1.8,1.839l-15.7-.044s-1.856-.4-2.126-1.94c.271,1.543-.007-24.264-.055-24.306Z" transform="translate(5.79 7.224)" fill="#fff" fill-rule="evenodd"/>
    <path id="Path_1572" data-name="Path 1572" d="M496.057,302.986l17.348.046s1.938.432,2.044,1.817l.055,16.1s-1.26,2.1-2.464,1.961h-8.6l-.106,6.356H495.8s.311-26.232.259-26.281Zm9.642,2.771h0a1.306,1.306,0,0,1,1.363,1.235v11.434a1.305,1.305,0,0,1-1.363,1.232h0a1.309,1.309,0,0,1-1.363-1.232V306.992a1.309,1.309,0,0,1,1.363-1.235Z" transform="translate(0 7.21)" fill="#fff" fill-rule="evenodd"/>
    <path id="Path_1573" data-name="Path 1573" d="M537.631,329.352l.051-22.462a1.128,1.128,0,0,1,1.236-1.034,1.2,1.2,0,0,1,1.289,1.079l.048,22.371,8.361-.044-.049-22.327a1.391,1.391,0,0,1,1.387-1.079s1.188.183,1.383,1.034l-.1,22.462,8.364-.047-.05-24.3s.1-1.438-2.031-1.975-26.374.046-26.374.046a2.5,2.5,0,0,0-2.078,1.93l.05,24.392s8.412-.093,8.509-.046Z" transform="translate(11.533 7.146)" fill="#fff" fill-rule="evenodd"/>
    <path id="Path_1574" data-name="Path 1574" d="M554.214,304.944a2.276,2.276,0,0,1,1.868-1.938h15.725a1.828,1.828,0,0,1,1.606,1.985l.105,24.274-8.411.1.159-5.963s0-1.041-1.4-1.088a1.323,1.323,0,0,0-1.505,1.038l.106,5.917-8.354.044s.1-24.318.1-24.365Zm9.651,1.089h0a1.293,1.293,0,0,1,1.349,1.224v10.988a1.294,1.294,0,0,1-1.349,1.223h0a1.3,1.3,0,0,1-1.348-1.223V307.257a1.294,1.294,0,0,1,1.348-1.224Z" transform="translate(20.211 7.217)" fill="#fff" fill-rule="evenodd"/>
  </g>
</svg>
