<svg xmlns="http://www.w3.org/2000/svg" width="121.74" height="72.8" viewBox="0 0 121.74 72.8">
  <g id="Group_2393" data-name="Group 2393" transform="translate(-498 -1552)">
    <g id="Group_2392" data-name="Group 2392" transform="translate(498 1552)">
      <path id="Path_1587" data-name="Path 1587" d="M91.37,136.54a12.251,12.251,0,0,0,.445,3.6,21.672,21.672,0,0,0,1.3,2.915,1.761,1.761,0,0,1,.283.931,1.6,1.6,0,0,1-.769,1.215l-2.551,1.7a1.941,1.941,0,0,1-1.053.364,1.863,1.863,0,0,1-1.215-.567,12.526,12.526,0,0,1-1.458-1.9c-.4-.688-.81-1.458-1.255-2.389A14.957,14.957,0,0,1,73.191,148a11.093,11.093,0,0,1-8.1-2.915,11.422,11.422,0,0,1,.688-16.115c2.47-2.105,5.749-3.158,9.92-3.158a32.057,32.057,0,0,1,4.291.324c1.5.2,3.037.526,4.656.891v-2.956c0-3.077-.648-5.223-1.9-6.478-1.3-1.255-3.482-1.863-6.6-1.863a18.422,18.422,0,0,0-4.373.526,32.262,32.262,0,0,0-4.373,1.377,11.666,11.666,0,0,1-1.417.526,2.483,2.483,0,0,1-.648.121c-.566,0-.85-.4-.85-1.255V115.04a2.562,2.562,0,0,1,.283-1.417,3.028,3.028,0,0,1,1.134-.85A23.314,23.314,0,0,1,71,110.95a24.554,24.554,0,0,1,6.317-.769c4.818,0,8.34,1.093,10.608,3.28,2.227,2.186,3.361,5.507,3.361,9.96V136.54Zm-16.438,6.154a13.122,13.122,0,0,0,4.17-.729,9.022,9.022,0,0,0,3.846-2.591,6.427,6.427,0,0,0,1.377-2.591,14.536,14.536,0,0,0,.4-3.523v-1.7A33.816,33.816,0,0,0,81,130.871a30.51,30.51,0,0,0-3.806-.243c-2.712,0-4.7.526-6.033,1.62a5.785,5.785,0,0,0,3.766,10.446Zm32.513,4.373a2.26,2.26,0,0,1-1.539-.4,3.3,3.3,0,0,1-.85-1.579l-9.515-31.3a7.092,7.092,0,0,1-.364-1.62.888.888,0,0,1,.972-1.012h3.968a2.244,2.244,0,0,1,1.579.4,3.313,3.313,0,0,1,.81,1.579l6.8,26.8,6.316-26.8a2.84,2.84,0,0,1,.769-1.579,2.785,2.785,0,0,1,1.62-.4h3.239a2.437,2.437,0,0,1,1.62.4,2.728,2.728,0,0,1,.769,1.579l6.4,27.128,7-27.128a3.472,3.472,0,0,1,.81-1.579,2.642,2.642,0,0,1,1.579-.4H143.2a.9.9,0,0,1,1.012,1.012,4.038,4.038,0,0,1-.081.648,5.761,5.761,0,0,1-.283,1.012l-9.758,31.3a3.1,3.1,0,0,1-.85,1.579,2.59,2.59,0,0,1-1.539.4h-3.482a2.437,2.437,0,0,1-1.62-.4,2.87,2.87,0,0,1-.769-1.62l-6.276-26.116-6.235,26.075a3.16,3.16,0,0,1-.769,1.62,2.51,2.51,0,0,1-1.62.4Zm52.029,1.093a26.794,26.794,0,0,1-6.235-.729,18.419,18.419,0,0,1-4.656-1.62,2.917,2.917,0,0,1-1.255-1.134,2.858,2.858,0,0,1-.243-1.134v-2.065c0-.85.324-1.255.931-1.255a2.293,2.293,0,0,1,.729.121c.243.081.607.243,1.012.4a22.025,22.025,0,0,0,4.454,1.417,24.314,24.314,0,0,0,4.818.486,10.925,10.925,0,0,0,5.911-1.336,4.36,4.36,0,0,0,2.105-3.846,3.942,3.942,0,0,0-1.093-2.834,10.159,10.159,0,0,0-4.089-2.105l-5.871-1.822a12.35,12.35,0,0,1-6.478-4.13,9.647,9.647,0,0,1-2.024-5.871,9.011,9.011,0,0,1,1.093-4.494,10.411,10.411,0,0,1,2.915-3.32,12.851,12.851,0,0,1,4.211-2.105,17.647,17.647,0,0,1,5.1-.688,20.326,20.326,0,0,1,2.713.162c.931.121,1.782.283,2.632.445.81.2,1.579.4,2.308.648a8.842,8.842,0,0,1,1.7.729,3.5,3.5,0,0,1,1.215,1.012,2.182,2.182,0,0,1,.364,1.336v1.9c0,.85-.324,1.3-.931,1.3a4.212,4.212,0,0,1-1.539-.486,18.523,18.523,0,0,0-7.774-1.579,10.451,10.451,0,0,0-5.385,1.134,3.91,3.91,0,0,0-1.9,3.6,3.823,3.823,0,0,0,1.215,2.875,12.094,12.094,0,0,0,4.454,2.227l5.75,1.822a12.315,12.315,0,0,1,6.276,3.887,9.162,9.162,0,0,1,1.863,5.669,10.409,10.409,0,0,1-1.053,4.7,10.889,10.889,0,0,1-2.956,3.563,13.052,13.052,0,0,1-4.494,2.267A19.258,19.258,0,0,1,159.473,148.16Z" transform="translate(-57.063 -110.1)" fill="#fff"/>
      <path id="Path_1588" data-name="Path 1588" d="M159.728,234.545c-13.321,9.839-32.675,15.062-49.316,15.062A89.217,89.217,0,0,1,50.2,226.649c-1.256-1.134-.121-2.672,1.376-1.782a119.578,119.578,0,0,0,106.2,6.6C160.011,230.455,161.914,232.925,159.728,234.545Zm5.547-6.316c-1.7-2.186-11.256-1.053-15.588-.526-1.3.162-1.5-.972-.324-1.822,7.612-5.345,20.123-3.806,21.581-2.024,1.458,1.822-.4,14.333-7.531,20.326-1.093.931-2.146.445-1.66-.769C163.372,239.4,166.975,230.374,165.275,228.228Z" transform="translate(-49.665 -176.807)" fill="#fff"/>
    </g>
  </g>
</svg>
