<svg xmlns="http://www.w3.org/2000/svg" width="175.61" height="71.384" viewBox="0 0 175.61 71.384">
  <g id="Group_2370" data-name="Group 2370" transform="translate(-28.898 -49.2)">
    <path id="Path_1553" data-name="Path 1553" d="M200.838,85.808c-4.653,8.126-9.043,12.582-15.2,15.728l12.844-31.521h-10.42L181.047,87.25C177.116,94,174.559,97.538,172,97.538c-1.311,0-2.228-.918.458-7.471l8.061-20.053H170.1l-6.63,16.37c-4.529,7.755-8.855,12.082-14.865,15.151l12.844-31.521h-10.42L144.021,87.25c-3.932,6.75-6.488,10.288-9.044,10.288-1.31,0-2.228-.918.459-7.471l8.06-20.053h-10.42L126.46,86.352c-4.353,7.344-10.052,11.912-13.634,12.1-3.407.263-3.539-3.8-3.407-6.488,4.063-.327,7.864-3.342,10.157-7.864.393-.786,2.949-6.029,2.949-9.436,0-3.146-2.162-5.5-6.357-5.5-5.7,0-10.681,4.325-10.681,4.325l6.618-16.449h-10.42L89.831,86.349c-4.539,7.718-8.915,12.106-11.476,12.106-1.114,0-2.359-.851.655-8.388l3.211-7.8c1.376-3.408,1.966-5.637,1.966-7.405,0-3.474-2.162-5.7-6.291-5.7-5.57,0-10.419,4-10.747,4.325l1.376-3.473H58.105L51.5,86.336C46.96,94.063,42.58,98.456,40.018,98.456c-1.114,0-2.294-.917.721-8.388L48.8,70.015H38.38L30.975,88.3c-4.784,11.862-.59,16.58,5.373,16.58,3.251,0,6.319-1.417,9.163-3.737l-1.167,2.885h10.42L63.61,82.2c2.753-3.146,5.767-4.653,7.34-4.653.983,0,1.769.524,1.769,1.442,0,.982-1.048,3.473-2.294,6.619l-.983,2.425c-4.653,11.6-1.835,16.842,4.981,16.842a14.892,14.892,0,0,0,9.414-3.71l-1.156,2.859H93.1L101.948,82.2c2.949-3.211,5.636-4.653,7.405-4.653,1.049,0,1.573.524,1.573,1.638a10.931,10.931,0,0,1-.786,3.276c-2.229,5.832-5.767,5.9-7.668,5.9-1.508,0-2.49.721-2.752,4-.59,7.34,3.932,12.517,10.026,12.517,4.9,0,9.836-3.334,13.875-7.467.1,5.308,3.409,7.467,7.03,7.467,4.915,0,7.93-4.063,7.93-4.063l-1.638,4c-1.442.786-5.112,2.293-7.536,3.473-3.342,1.508-7.34,4.587-7.405,9.241-.065,3.735,2.49,7.208,8.06,7.208,7.864,0,11.8-6.553,14.482-13.041.525-1.31,1.508-3.735,1.508-3.735,5.127-2.41,9.96-5.057,14.618-10.071.287,4.959,3.5,6.991,7.009,6.991,4.915,0,7.93-4.063,7.93-4.063l-1.638,4c-1.442.786-5.112,2.293-7.536,3.473-3.342,1.508-7.34,4.587-7.4,9.241-.066,3.735,2.49,7.208,8.06,7.208,7.864,0,11.8-6.553,14.482-13.041.525-1.31,1.508-3.735,1.508-3.735,7.667-3.6,14.679-7.733,21.429-19.529A5.1,5.1,0,0,0,200.838,85.808Zm-72.152,32.57a1.685,1.685,0,0,1-1.769-1.769c0-1.114.983-2.294,2.49-3.211a52.7,52.7,0,0,1,5.111-2.491C132.355,116.74,130.128,118.378,128.686,118.378Zm37.026,0a1.685,1.685,0,0,1-1.769-1.769c0-1.114.983-2.294,2.49-3.211a52.7,52.7,0,0,1,5.112-2.491C169.382,116.74,167.154,118.378,165.712,118.378Z" transform="translate(0 -4.15)" fill="#fff"/>
    <path id="Path_1554" data-name="Path 1554" d="M60.8,63.112a5.682,5.682,0,0,0,3.589-1.324l0,0C70.672,56.4,66.09,49.2,66.09,49.2c-1.519,2.9-4.923,2.455-4.923,2.455v.007c-.12-.008-.24-.018-.363-.018a5.679,5.679,0,0,0-5.767,5.7A5.818,5.818,0,0,0,60.8,63.112Z" transform="translate(-13.839 0)" fill="#fff"/>
  </g>
</svg>
