<svg xmlns="http://www.w3.org/2000/svg" viewBox="0 0 41 41" width="41" height="41">
	<defs>
		<clipPath clipPathUnits="userSpaceOnUse" id="cp1">
			<path d="M-1644 -7896L276 -7896L276 211L-1644 211Z" />
		</clipPath>
	</defs>
	<style>
		tspan { white-space:pre }
		.shp0 { fill: #66667e } 
	</style>
	<g id="Index-2" clip-path="url(#cp1)">
		<g id="Group 2442">
			<g id="Group 2426">
				<g id="Group 225">
					<g id="instagram">
						<path id="Path 383" fill-rule="evenodd" class="shp0" d="M41 20.5C41 31.62 31.95 40.67 20.83 40.67C9.71 40.67 0.66 31.62 0.66 20.5C0.66 9.38 9.71 0.33 20.83 0.33C31.95 0.33 41 9.38 41 20.5ZM38.69 20.5C38.69 10.65 30.68 2.64 20.83 2.64C10.98 2.64 2.97 10.65 2.97 20.5C2.97 30.35 10.98 38.36 20.83 38.36C30.68 38.36 38.69 30.35 38.69 20.5Z" />
						<path id="Path 384" fill-rule="evenodd" class="shp0" d="M30.61 13.06L30.61 27.93C30.61 29.28 29.52 30.37 28.18 30.37L13.49 30.37C12.15 30.37 11.05 29.28 11.05 27.93L11.05 13.06C11.05 11.72 12.15 10.63 13.49 10.63L28.18 10.63C29.52 10.63 30.61 11.72 30.61 13.06ZM28.3 13.06C28.3 12.99 28.25 12.94 28.18 12.94L13.49 12.94C13.42 12.94 13.36 12.99 13.36 13.06L13.36 27.93C13.36 28 13.42 28.06 13.49 28.06L28.18 28.06C28.25 28.06 28.3 28 28.3 27.93L28.3 13.06Z" />
					</g>
				</g>
			</g>
		</g>
	</g>
</svg>