<svg xmlns="http://www.w3.org/2000/svg" width="112.812" height="240.389" viewBox="0 0 112.812 240.389">
  <path id="Intersection_1" data-name="Intersection 1" d="M95.7,240.389A19.861,19.861,0,0,1,75.87,220.558V192.836c.3-7.592-4.972-19.561-14.591-33.557a57.841,57.841,0,0,1-8.754-11.673c-.3-.594-.594-.864-.864-1.459a68.554,68.554,0,0,1-9.349-34.422,69.608,69.608,0,0,1,69.44-69.439c.352,0,.71,0,1.061,0V52.778q-.543-.01-1.089-.01a58.659,58.659,0,0,0-58.658,58.658A59.414,59.414,0,0,0,61.224,141.2v.3a70.647,70.647,0,0,0,7.89,10.51l.594.595q14.427,20.588,16.644,35.016h26.46v10.753H86.65v9.916h26.162V219.1H86.65v2.053A9.142,9.142,0,0,0,95.7,229.31h17.111v11.079ZM5.242,117.236a5.242,5.242,0,1,1,0-10.483H17.779a5.242,5.242,0,1,1,0,10.483ZM27.721,69.71,16.914,63.279a5.359,5.359,0,1,1,5.242-9.349L32.963,60.36a5.356,5.356,0,0,1,2.054,7.322A5.262,5.262,0,0,1,30.343,70.3,4.261,4.261,0,0,1,27.721,69.71ZM60.387,32.936,53.957,22.1a5.359,5.359,0,1,1,9.349-5.242l6.431,10.807a5.309,5.309,0,0,1-2.054,7.3,8.368,8.368,0,0,1-2.621.594A5.234,5.234,0,0,1,60.387,32.936Zm46.689-15.158V5.242A5.212,5.212,0,0,1,112.318,0q.25,0,.494.023V23q-.244.022-.494.023C109.1,23.02,106.779,20.669,107.077,17.779Z" fill="#262634"/>
</svg>
