<svg xmlns="http://www.w3.org/2000/svg" viewBox="0 0 41 41" width="41" height="41">
	<defs>
		<clipPath clipPathUnits="userSpaceOnUse" id="cp1">
			<path d="M-1579 -7896L341 -7896L341 211L-1579 211Z" />
		</clipPath>
	</defs>
	<style>
		tspan { white-space:pre }
		.shp0 { fill: #66667e } 
	</style>
	<g id="Index-2" clip-path="url(#cp1)">
		<g id="Group 2442">
			<g id="Group 2426">
				<g id="Group 225">
					<g id="twitter-circular-button">
						<g id="Group 224">
							<path id="Path 381" class="shp0" d="M29.48 16.49C29.48 16.29 29.48 16.08 29.47 15.88C30.34 15.23 31.09 14.42 31.69 13.49C30.89 13.85 30.03 14.09 29.13 14.19C30.05 13.63 30.76 12.72 31.09 11.63C30.23 12.16 29.28 12.53 28.26 12.72C27.45 11.8 26.29 11.21 25.01 11.19C22.55 11.15 20.56 13.23 20.56 15.83C20.56 16.2 20.59 16.56 20.67 16.91C16.97 16.67 13.68 14.74 11.49 11.84C11.1 12.53 10.88 13.35 10.88 14.22C10.88 15.87 11.67 17.34 12.86 18.2C12.13 18.17 11.45 17.95 10.85 17.58C10.85 17.6 10.85 17.62 10.85 17.64C10.85 19.95 12.38 21.88 14.42 22.33C14.05 22.44 13.65 22.49 13.25 22.49C12.96 22.49 12.68 22.46 12.41 22.4C12.98 24.29 14.62 25.67 16.57 25.72C15.05 26.98 13.12 27.74 11.04 27.73C10.68 27.73 10.32 27.71 9.97 27.66C11.95 29.02 14.29 29.81 16.81 29.81C25 29.81 29.48 22.68 29.48 16.49Z" />
							<path id="Path 382" fill-rule="evenodd" class="shp0" d="M20.83 40.67C9.69 40.67 0.66 31.64 0.66 20.5C0.66 9.36 9.69 0.33 20.83 0.33C31.97 0.33 41 9.36 41 20.5C41 31.64 31.97 40.67 20.83 40.67ZM20.83 38.83C30.96 38.83 39.17 30.62 39.17 20.5C39.17 10.37 30.96 2.16 20.83 2.16C10.71 2.16 2.5 10.37 2.5 20.5C2.5 30.62 10.71 38.83 20.83 38.83Z" />
						</g>
					</g>
				</g>
			</g>
		</g>
	</g>
</svg>