<svg xmlns="http://www.w3.org/2000/svg" xmlns:xlink="http://www.w3.org/1999/xlink" viewBox="0 0 81.22 70.27"><defs><linearGradient id="linear-gradient" x1="40.89" y1="12.28" x2="71.65" y2="12.28" gradientUnits="userSpaceOnUse"><stop offset="0" stop-color="#4d4d8c"/><stop offset="0.5" stop-color="#425597"/><stop offset="1" stop-color="#4d4d8c"/></linearGradient><clipPath id="clip-path"><path d="M61.32,39q-2.07,4.6-4.16,9.2c1.41-3.12,1.23-7-.88-10.92A21.06,21.06,0,0,0,53.22,33l4.16-9.19a20.79,20.79,0,0,1,3.06,4.25C62.55,32,62.73,35.85,61.32,39Z" style="fill:none"/></clipPath><linearGradient id="linear-gradient-2" x1="57.38" y1="32.95" x2="81.22" y2="32.95" gradientUnits="userSpaceOnUse"><stop offset="0" stop-color="#feec19"/><stop offset="0.5" stop-color="#fecb01"/><stop offset="1" stop-color="#fea300"/></linearGradient><clipPath id="clip-path-2"><path d="M1.79,23.11,6,13.92C3.17,20.06,3.53,27.65,7.7,35.44a40.72,40.72,0,0,0,6,8.39L9.57,53a40.66,40.66,0,0,1-6-8.38C-.63,36.84-1,29.25,1.79,23.11Z" style="fill:#312e91"/></clipPath><linearGradient id="linear-gradient-3" x1="4.16" y1="21.91" x2="41.78" y2="21.91" gradientUnits="userSpaceOnUse"><stop offset="0" stop-color="#d654dd"/><stop offset="0.5" stop-color="#a324a3"/><stop offset="1" stop-color="#bf4cb2"/></linearGradient><linearGradient id="linear-gradient-4" x1="13.73" y1="49.18" x2="78.67" y2="49.18" gradientUnits="userSpaceOnUse"><stop offset="0" stop-color="#fb6040"/><stop offset="0.5" stop-color="#fe0001"/><stop offset="1" stop-color="#d50001"/></linearGradient><linearGradient id="linear-gradient-5" x1="9.57" y1="57.05" x2="78.67" y2="57.05" gradientUnits="userSpaceOnUse"><stop offset="0" stop-color="#783215"/><stop offset="0.5" stop-color="#c20001"/><stop offset="1" stop-color="#d50001"/></linearGradient></defs><g id="Layer_2" data-name="Layer 2"><g id="Layer_1-2" data-name="Layer 1"><polygon points="11.32 25.03 11.26 24.99 0.41 31.25 11.32 37.56 22.18 31.29 11.32 25.03" style="fill:#c6e541"/><polygon points="36.73 9.95 40.9 0.76 41.78 15.44 37.62 24.63 36.73 9.95" style="fill:#4f0b0b"/><path d="M57.38,23.8a28.44,28.44,0,0,0-15.6-8.36L40.89.76A56.07,56.07,0,0,1,71.65,17.25Z" style="fill:url(#linear-gradient)"/><path d="M39.79,25.1A28.13,28.13,0,0,1,53.22,33c.72-1.6,1.45-3.2,2.17-4.81L56.83,25l.42-.93c.2-.42,0-.47-.41-.84A27.58,27.58,0,0,0,47.16,17c-.82-.31-1.64-.6-2.48-.85a16,16,0,0,0-2.9-.67L41,17.06l-3.42,7.57c.73.13,1.46.29,2.17.47Z" style="fill:#12123f"/><polygon points="53.22 32.99 57.38 23.8 71.65 17.25 67.49 26.44 53.22 32.99" style="fill:#5f0d0e"/><g style="clip-path:url(#clip-path)"><path d="M53.22,33l4.16-9.19a20.79,20.79,0,0,1,3.06,4.25c2.11,3.95,2.29,7.8.88,10.91l-4.16,9.2c1.41-3.12,1.23-7-.88-10.92A21.06,21.06,0,0,0,53.22,33Z" style="fill:#847413"/></g><path d="M34.52,15.25l-1,.17-.33.07-.63.14-.37.1-.55.16-.37.12-.51.18-.12,0-.33.14-.29.12-.52.24-.19.09-.69.37-.14.09-.5.32-.22.15c-.13.09-.27.18-.39.28l-.23.18-.35.28-.22.19-.31.3c-.07.07-.14.13-.2.2l-.11.1-.32.36,0,0a6.54,6.54,0,0,0-.41.51l0,0c-.13.18-.26.36-.37.54a.86.86,0,0,0-.07.1c-.11.18-.22.36-.32.54l0,.1-.3.59L19.89,31.3l.3-.59,0-.09c.1-.19.21-.37.32-.55l.07-.1a6.3,6.3,0,0,1,.37-.53l0-.06c.13-.17.26-.34.4-.5l0-.05c.13-.16.27-.3.41-.45l.21-.21c.1-.1.2-.2.31-.29l.22-.2L23,27.4l.23-.18a3.89,3.89,0,0,1,.39-.28l.22-.15c.16-.11.33-.22.51-.32a.57.57,0,0,1,.13-.08c.22-.13.45-.25.68-.37l.2-.1.53-.24.28-.12.45-.18.51-.18.37-.12.55-.16.37-.1.63-.14.32-.07,1-.17a23.34,23.34,0,0,1,7.26.19l4.16-9.19A23.34,23.34,0,0,0,34.52,15.25Z" style="fill:#7a118c"/><path d="M78.67,48.65,60.94,39.72c1.81-3.23,1.79-7.39-.5-11.67a20.79,20.79,0,0,0-3.06-4.25l14.27-6.55a40.46,40.46,0,0,1,6,8.39C82.2,34.08,82.24,42.27,78.67,48.65Z" style="fill:url(#linear-gradient-2)"/><polygon points="56.78 48.92 60.94 39.72 78.67 48.65 74.52 57.84 56.78 48.92" style="fill:#998716"/><path d="M1.79,23.11,6,13.92C3.17,20.06,3.53,27.65,7.7,35.44a40.72,40.72,0,0,0,6,8.39L9.57,53a40.66,40.66,0,0,1-6-8.38C-.63,36.84-1,29.25,1.79,23.11Z" style="fill:#312e91"/><g style="clip-path:url(#clip-path-2)"><path d="M1.79,23.11,6,13.92C3.17,20.06,3.53,27.65,7.7,35.44a40.72,40.72,0,0,0,6,8.39L9.57,53a40.66,40.66,0,0,1-6-8.38C-.63,36.84-1,29.25,1.79,23.11Z" style="fill:#a324a3"/></g><polygon points="9.57 53.02 13.73 43.83 28 37.28 23.84 46.47 9.57 53.02" style="fill:#3f7018"/><path d="M13.73,43.83a40.72,40.72,0,0,1-6-8.39C-1.2,18.8,7.26,3.11,26.58.4A46,46,0,0,1,40.89.76l.89,14.68a23.34,23.34,0,0,0-7.26-.19c-9.8,1.38-14.09,9.33-9.58,17.78A21.06,21.06,0,0,0,28,37.28Z" style="fill:url(#linear-gradient-3)"/><path d="M58.8,60.68c-15.86,2.22-34.12-5-45.07-16.85L28,37.28c5.56,6,14.82,9.67,22.86,8.55,4.83-.68,8.32-3,10.08-6.11l17.73,8.93C75.21,54.85,68.33,59.34,58.8,60.68Z" style="fill:url(#linear-gradient-4)"/><path d="M72.09,61.28a21.16,21.16,0,0,0,2.43-3.44l4.15-9.19c-3.24,5.81-9.16,9.43-15.45,11.13A43.88,43.88,0,0,1,42.93,60a58,58,0,0,1-19.2-7.88,50.74,50.74,0,0,1-10-8.31L9.57,53a53.54,53.54,0,0,0,16.75,12A54.56,54.56,0,0,0,46.2,70.2c6.63.37,13.61-.6,19.48-3.84a23.4,23.4,0,0,0,6.41-5.08C72.15,61.2,72,61.37,72.09,61.28Z" style="fill:url(#linear-gradient-5)"/></g></g></svg>